<?xml version="1.0" encoding="utf-8"?>
<!-- Generator: Adobe Illustrator 27.9.0, SVG Export Plug-In . SVG Version: 6.00 Build 0)  -->
<svg version="1.1" id="Layer_1" xmlns="http://www.w3.org/2000/svg" xmlns:xlink="http://www.w3.org/1999/xlink" x="0px" y="0px"
	 viewBox="0 0 24 24" style="enable-background:new 0 0 24 24;" xml:space="preserve">
<style type="text/css">
	.st0{fill:#F9FF00;}
</style>
<path class="st0" d="M12,12c0.6,0,1-0.2,1.4-0.6S14,10.6,14,10s-0.2-1-0.6-1.4S12.6,8,12,8s-1,0.2-1.4,0.6S10,9.4,10,10
	s0.2,1,0.6,1.4S11.4,12,12,12z M12,22c-2.7-2.3-4.7-4.4-6-6.4s-2-3.8-2-5.4c0-2.5,0.8-4.5,2.4-6S9.9,2,12,2s4,0.7,5.6,2.2
	s2.4,3.5,2.4,6c0,1.7-0.7,3.5-2,5.4C16.7,17.6,14.7,19.7,12,22z"/>
</svg>
