<?xml version="1.0" encoding="UTF-8"?>
<svg id="Layer_1" data-name="Layer 1" xmlns="http://www.w3.org/2000/svg" viewBox="0 0 20 26.25">
  <defs>
    <style>
      .cls-1, .cls-2 {
        stroke-width: 0px;
      }

      .cls-2 {
        fill: #05e840;
      }
    </style>
  </defs>
  <path class="cls-2" d="m10,26.25L1,19.5c-.31-.23-.56-.52-.73-.88s-.27-.73-.27-1.12V2.5c0-.69.24-1.28.73-1.77s1.08-.73,1.77-.73h15c.69,0,1.28.24,1.77.73s.73,1.08.73,1.77v15c0,.4-.09.77-.27,1.12s-.42.65-.73.88l-9,6.75Z"/>
  <path id="Gas" class="cls-1" d="m3.12,17.5V4.17c0-.46.16-.85.49-1.18s.72-.49,1.18-.49h5c.46,0,.85.16,1.18.49s.49.72.49,1.18v5.83h.83c.46,0,.85.16,1.18.49s.49.72.49,1.18v3.75c0,.24.08.43.24.59s.36.24.59.24.43-.08.59-.24.24-.36.24-.59v-6c-.12.07-.26.11-.4.14s-.28.03-.44.03c-.58,0-1.08-.2-1.48-.6-.4-.4-.6-.9-.6-1.48,0-.44.12-.84.36-1.2s.57-.61.97-.76l-1.75-1.75.88-.88,3.08,3c.21.21.36.45.47.73s.16.56.16.85v7.92c0,.58-.2,1.08-.6,1.48s-.9.6-1.48.6-1.08-.2-1.48-.6-.6-.9-.6-1.48v-4.17h-1.25v6.25H3.12Zm1.67-9.17h5v-4.17h-5v4.17Zm10,0c.24,0,.43-.08.59-.24s.24-.36.24-.59-.08-.43-.24-.59-.36-.24-.59-.24-.43.08-.59.24-.24.36-.24.59.08.43.24.59.36.24.59.24Z"/>
</svg>