<?xml version="1.0" encoding="UTF-8"?>
<svg id="Layer_1" data-name="Layer 1" xmlns="http://www.w3.org/2000/svg" viewBox="0 0 20 26.25">
  <defs>
    <style>
      .cls-1, .cls-2 {
        stroke-width: 0px;
      }

      .cls-2 {
        fill: #05e840;
      }
    </style>
  </defs>
  <path class="cls-2" d="m10,26.25L1,19.5c-.31-.23-.56-.52-.73-.88s-.27-.73-.27-1.12V2.5c0-.69.24-1.28.73-1.77s1.08-.73,1.77-.73h15c.69,0,1.28.24,1.77.73s.73,1.08.73,1.77v15c0,.4-.09.77-.27,1.12s-.42.65-.73.88l-9,6.75Z"/>
  <path id="Vault" class="cls-1" d="m4.75,15.25v-7.5c0-.82.29-1.53.88-2.12.59-.59,1.29-.88,2.12-.88h1.5v4.5h-1.5v1.5h1.5v4.5h-4.5Zm6,0v-4.5h1.5v-1.5h-1.5v-4.5h1.5c.83,0,1.53.29,2.12.88s.88,1.29.88,2.12v7.5h-4.5Zm-8.25-1.5v-7.5h1.5v7.5h-1.5Zm13.5,0v-7.5h1.5v7.5h-1.5Z"/>
</svg>