<?xml version="1.0" encoding="UTF-8"?>
<svg id="Layer_1" data-name="Layer 1" xmlns="http://www.w3.org/2000/svg" viewBox="0 0 20 26.25">
  <defs>
    <style>
      .cls-1, .cls-2 {
        stroke-width: 0px;
      }

      .cls-2 {
        fill: #05e840;
      }
    </style>
  </defs>
  <path class="cls-2" d="m10,26.25L1,19.5c-.31-.23-.56-.52-.73-.88s-.27-.73-.27-1.12V2.5c0-.69.24-1.28.73-1.77s1.08-.73,1.77-.73h15c.69,0,1.28.24,1.77.73s.73,1.08.73,1.77v15c0,.4-.09.77-.27,1.12s-.42.65-.73.88l-9,6.75Z"/>
  <polygon id="Cave" class="cls-1" points="14.06 7.8 12.49 10.29 10 2.5 8.34 7.89 6.27 5.82 2.79 17.5 7.47 17.5 8.45 12.6 10.27 11.35 12.67 17.5 17.21 17.5 14.06 7.8"/>
</svg>