<?xml version="1.0" encoding="UTF-8"?>
<svg id="Layer_1" data-name="Layer 1" xmlns="http://www.w3.org/2000/svg" viewBox="0 0 20 26.25">
  <defs>
    <style>
      .cls-1, .cls-2 {
        stroke-width: 0px;
      }

      .cls-2 {
        fill: #05e840;
      }
    </style>
  </defs>
  <path class="cls-2" d="m10,26.25L1,19.5c-.31-.23-.56-.52-.73-.88s-.27-.73-.27-1.12V2.5c0-.69.24-1.28.73-1.77s1.08-.73,1.77-.73h15c.69,0,1.28.24,1.77.73s.73,1.08.73,1.77v15c0,.4-.09.77-.27,1.12s-.42.65-.73.88l-9,6.75Z"/>
  <path id="Lab" class="cls-1" d="m4.19,17.48c-.71,0-1.21-.31-1.51-.94-.3-.63-.22-1.21.22-1.75l4.61-5.61v-4.98h-.83c-.24,0-.43-.08-.59-.24s-.24-.36-.24-.59.08-.43.24-.59.36-.24.59-.24h6.65c.24,0,.43.08.59.24s.24.36.24.59-.08.43-.24.59-.36.24-.59.24h-.83v4.98l4.61,5.61c.44.54.52,1.12.22,1.75s-.8.94-1.51.94H4.19Z"/>
</svg>