<?xml version="1.0" encoding="UTF-8"?>
<svg id="Layer_1" data-name="Layer 1" xmlns="http://www.w3.org/2000/svg" viewBox="0 0 20 26.25">
  <defs>
    <style>
      .cls-1, .cls-2 {
        stroke-width: 0px;
      }

      .cls-2 {
        fill: #05e840;
      }
    </style>
  </defs>
  <path class="cls-2" d="m10,26.25L1,19.5c-.31-.23-.56-.52-.73-.88s-.27-.73-.27-1.12V2.5c0-.69.24-1.28.73-1.77s1.08-.73,1.77-.73h15c.69,0,1.28.24,1.77.73s.73,1.08.73,1.77v15c0,.4-.09.77-.27,1.12s-.42.65-.73.88l-9,6.75Z"/>
  <path id="Train" class="cls-1" d="m3.68,13.16v-7.5c0-.7.18-1.25.54-1.67s.84-.73,1.43-.95,1.27-.36,2.02-.43,1.53-.11,2.32-.11c.87,0,1.69.04,2.46.11s1.44.22,2.01.43,1.02.53,1.35.95.49.97.49,1.67v7.5c0,.78-.27,1.43-.8,1.96s-1.19.8-1.96.8l1.18,1.18v.39h-1.58l-1.58-1.58h-3.16l-1.58,1.58h-1.58v-.39l1.18-1.18c-.78,0-1.43-.27-1.96-.8s-.8-1.19-.8-1.96Zm1.58-4.34h3.95v-2.37h-3.95v2.37Zm5.53,0h3.95v-2.37h-3.95v2.37Zm-3.55,4.74c.34,0,.62-.11.85-.34s.34-.51.34-.85-.11-.62-.34-.85-.51-.34-.85-.34-.62.11-.85.34-.34.51-.34.85.11.62.34.85.51.34.85.34Zm5.53,0c.34,0,.63-.11.85-.34s.34-.51.34-.85-.11-.62-.34-.85-.51-.34-.85-.34-.63.11-.85.34-.34.51-.34.85.11.62.34.85.51.34.85.34Z"/>
</svg>