<?xml version="1.0" encoding="UTF-8"?>
<svg id="Layer_1" data-name="Layer 1" xmlns="http://www.w3.org/2000/svg" viewBox="0 0 20 26.25">
  <defs>
    <style>
      .cls-1, .cls-2 {
        stroke-width: 0px;
      }

      .cls-2 {
        fill: #05e840;
      }
    </style>
  </defs>
  <path class="cls-2" d="m10,26.25L1,19.5c-.31-.23-.56-.52-.73-.88s-.27-.73-.27-1.12V2.5c0-.69.24-1.28.73-1.77s1.08-.73,1.77-.73h15c.69,0,1.28.24,1.77.73s.73,1.08.73,1.77v15c0,.4-.09.77-.27,1.12s-.42.65-.73.88l-9,6.75Z"/>
  <path id="Key" class="cls-1" d="m6.59,13.13c.57,0,1.05-.2,1.45-.6s.6-.88.6-1.45-.2-1.05-.6-1.45-.88-.6-1.45-.6-1.05.2-1.45.6-.6.88-.6,1.45.2,1.05.6,1.45.88.6,1.45.6Zm0,2.05c-1.14,0-2.1-.4-2.9-1.19-.8-.8-1.19-1.76-1.19-2.9s.4-2.1,1.19-2.9c.8-.8,1.76-1.19,2.9-1.19.92,0,1.72.26,2.41.78s1.17,1.17,1.44,1.94h5.71l1.35,1.35-2.39,2.73-1.7-1.35-1.36,1.36-1.36-1.36h-.24c-.28.82-.78,1.48-1.48,1.98-.7.5-1.49.75-2.37.75Z"/>
</svg>