<?xml version="1.0" encoding="UTF-8"?>
<svg id="Layer_1" data-name="Layer 1" xmlns="http://www.w3.org/2000/svg" viewBox="0 0 20 26.25">
  <defs>
    <style>
      .cls-1, .cls-2 {
        stroke-width: 0px;
      }

      .cls-2 {
        fill: #05e840;
      }
    </style>
  </defs>
  <path class="cls-2" d="m10,26.25L1,19.5c-.31-.23-.56-.52-.73-.88s-.27-.73-.27-1.12V2.5c0-.69.24-1.28.73-1.77s1.08-.73,1.77-.73h15c.69,0,1.28.24,1.77.73s.73,1.08.73,1.77v15c0,.4-.09.77-.27,1.12s-.42.65-.73.88l-9,6.75Z"/>
  <g id="Bunker">
    <rect class="cls-1" x="2.5" y="14.71" width="15" height="1.2"/>
    <path class="cls-1" d="m10.64,4.08h-1.28c-3.45,0-6.25,2.8-6.25,6.25v4.38h4.89v-4.19c0-.69.56-1.25,1.25-1.25h1.5c.69,0,1.25.56,1.25,1.25v4.19h4.89v-4.38c0-3.45-2.8-6.25-6.25-6.25Z"/>
  </g>
</svg>