<?xml version="1.0" encoding="UTF-8"?>
<svg id="Layer_1" data-name="Layer 1" xmlns="http://www.w3.org/2000/svg" viewBox="0 0 20 26.25">
  <defs>
    <style>
      .cls-1, .cls-2 {
        stroke-width: 0px;
      }

      .cls-2 {
        fill: #05e840;
      }
    </style>
  </defs>
  <path class="cls-2" d="m10,26.25L1,19.5c-.31-.23-.56-.52-.73-.88s-.27-.73-.27-1.12V2.5c0-.69.24-1.28.73-1.77s1.08-.73,1.77-.73h15c.69,0,1.28.24,1.77.73s.73,1.08.73,1.77v15c0,.4-.09.77-.27,1.12s-.42.65-.73.88l-9,6.75Z"/>
  <path id="Tram" class="cls-1" d="m4,14.47v-7.12c0-1.2.52-2.02,1.57-2.4s2.32-.6,3.68-.6l.6-1.12h-3.6v-1.12h7.5v1.12h-2.4l-.6,1.12c1.5,0,2.7.23,3.75.6s1.5,1.2,1.5,2.4v7.12c0,.75-.22,1.35-.75,1.88s-1.12.75-1.88.75h-6.75c-.75,0-1.35-.22-1.88-.75s-.75-1.12-.75-1.88Zm6,.38c.3,0,.6-.08.83-.3s.3-.45.3-.83-.08-.6-.3-.83c-.23-.22-.53-.3-.83-.3s-.6.08-.83.3-.3.45-.3.83.08.6.3.83.53.3.83.3Zm-4.5-4.5h9v-2.25H5.5v2.25Z"/>
</svg>