<?xml version="1.0" encoding="UTF-8"?>
<svg id="Layer_1" data-name="Layer 1" xmlns="http://www.w3.org/2000/svg" viewBox="0 0 20 26.25">
  <defs>
    <style>
      .cls-1, .cls-2 {
        stroke-width: 0px;
      }

      .cls-2 {
        fill: #05e840;
      }
    </style>
  </defs>
  <path class="cls-2" d="m10,26.25L1,19.5c-.31-.23-.56-.52-.73-.88s-.27-.73-.27-1.12V2.5c0-.69.24-1.28.73-1.77s1.08-.73,1.77-.73h15c.69,0,1.28.24,1.77.73s.73,1.08.73,1.77v15c0,.4-.09.77-.27,1.12s-.42.65-.73.88l-9,6.75Z"/>
  <path id="Vending_Machine" data-name="Vending Machine" class="cls-1" d="m15,2H5c-.28,0-.5.22-.5.5v14c0,.28.22.5.5.5h.59v.8c0,.11.09.2.2.2h1.1c.11,0,.2-.09.2-.2v-.8h5.81v.8c0,.11.09.2.2.2h1.09c.11,0,.2-.09.2-.2v-.8h.59c.28,0,.5-.22.5-.5V2.5c0-.28-.22-.5-.5-.5Zm-9.41,1.39c0-.14.11-.25.25-.25h5.49c.14,0,.25.11.25.25v2.23c0,.14-.11.25-.25.25h-.15v-1.3c0-.11-.09-.2-.2-.2h-.85c-.11,0-.2.09-.2.2v1.3h-.67v-1.3c0-.11-.09-.2-.2-.2h-.85c-.11,0-.2.09-.2.2v1.3h-.67v-1.3c0-.11-.09-.2-.2-.2h-.85c-.11,0-.2.09-.2.2v1.3h-.25c-.14,0-.25-.11-.25-.25v-2.23Zm0,3.3c0-.14.11-.25.25-.25h5.51c.14,0,.25.11.25.25v2.24c0,.14-.11.25-.25.25h-.15v-1.3c0-.11-.09-.2-.2-.2h-.85c-.11,0-.2.09-.2.2v1.3h-.67v-1.3c0-.11-.09-.2-.2-.2h-.85c-.11,0-.2.09-.2.2v1.3h-.67v-1.3c0-.11-.09-.2-.2-.2h-.85c-.11,0-.2.09-.2.2v1.3h-.26c-.14,0-.25-.11-.25-.25v-2.24Zm0,3.3c0-.14.11-.25.25-.25h5.5c.14,0,.25.11.25.25v2.24c0,.14-.11.25-.25.25h-.15v-1.3c0-.11-.09-.2-.2-.2h-.85c-.11,0-.2.09-.2.2v1.3h-.67v-1.3c0-.11-.09-.2-.2-.2h-.85c-.11,0-.2.09-.2.2v1.3h-.67v-1.3c0-.11-.09-.2-.2-.2h-.85c-.11,0-.2.09-.2.2v1.3h-.26c-.14,0-.25-.11-.25-.25v-2.24Zm8.82,5.33c0,.14-.11.25-.25.25H5.84c-.14,0-.25-.11-.25-.25v-1.36c0-.14.11-.25.25-.25h8.31c.14,0,.25.11.25.25v1.36Zm0-3.71c0,.14-.11.25-.25.25h-1.01c-.14,0-.25-.11-.25-.25v-1.01c0-.14.11-.25.25-.25h1.01c.14,0,.25.11.25.25v1.01Zm0-2.12c0,.14-.11.25-.25.25h-1.01c-.14,0-.25-.11-.25-.25V3.38c0-.14.11-.25.25-.25h1.01c.14,0,.25.11.25.25v6.11Z"/>
</svg>